<svg xmlns="http://www.w3.org/2000/svg" width="800" height="800" viewBox="0 0 800 800">
  <defs>
    <style>
      .cls-1 {
        fill: #fff;
        fill-rule: evenodd;
      }
    </style>
  </defs>
  <path id="Ellipse_1_copy_2" data-name="Ellipse 1 copy 2" class="cls-1" d="M784.364,267.182s-4.075,1.824-7.463-.186c-0.581-.345-1.184-0.715-1.795-1.1-0.169-.105-0.34-0.214-0.511-0.322q-0.723-.456-1.46-0.935c-0.145-.093-0.288-0.185-0.433-0.28-1.328-.869-2.677-1.779-3.991-2.683a21.937,21.937,0,0,0,.022-23.322c1.394-.959,2.824-1.925,4.227-2.842,0.116-.077.231-0.15,0.347-0.226q0.806-.523,1.588-1.017l0.5-.317c0.63-.393,1.249-0.775,1.841-1.126,3.211-1.905,7.125.014,7.125,0.014L786,250.013ZM765.832,225l-0.078.124c-0.4.644-.824,1.3-1.256,1.962l-0.05.076c-0.895,1.372-1.836,2.766-2.771,4.123a21.941,21.941,0,0,0-23.337-.01h0c-0.489-.711-0.98-1.431-1.466-2.152l-0.024-.036c-0.472-.7-0.938-1.4-1.392-2.1l-0.082-.125c-0.448-.685-0.882-1.363-1.3-2.026l-0.069-.111c-0.423-.675-0.828-1.334-1.2-1.967-1.907-3.211.014-7.125,0.014-7.125L750,214l17.182,1.636s1.825,4.075-.187,7.463C766.63,223.715,766.239,224.352,765.832,225Zm-34.523,36.71c-1.319.908-2.672,1.822-4.006,2.695l-0.425.276q-0.744.483-1.471,0.942c-0.17.108-.34,0.216-0.509,0.321-0.613.383-1.217,0.755-1.8,1.1-3.388,2.012-7.463.187-7.463,0.187L714,250.051l1.636-17.182s3.914-1.92,7.125-.014c0.591,0.351,1.21.732,1.838,1.125,0.167,0.1.335,0.211,0.5,0.317q0.78,0.494,1.581,1.015l0.353,0.228c1.4,0.917,2.825,1.879,4.217,2.837h0A21.941,21.941,0,0,0,731.309,261.712ZM692.5,228h-85a1.5,1.5,0,0,1-1.5-1.5v-2a1.5,1.5,0,0,1,1.5-1.5h85a1.5,1.5,0,0,1,1.5,1.5v2A1.5,1.5,0,0,1,692.5,228ZM647,91l10-39-26,9,9-40,21-8L643,46l29-9ZM596,256H504a2,2,0,0,1-2-2v-8a2,2,0,0,1,2-2h92a2,2,0,0,1,2,2v8A2,2,0,0,1,596,256Zm-88-9a3,3,0,1,0,3,3A3,3,0,0,0,508,247Zm7,0a3,3,0,1,0,3,3A3,3,0,0,0,515,247Zm7,0a3,3,0,1,0,3,3A3,3,0,0,0,522,247Zm7,0a3,3,0,1,0,3,3A3,3,0,0,0,529,247Zm7,0a3,3,0,1,0,3,3A3,3,0,0,0,536,247Zm7,0a3,3,0,1,0,3,3A3,3,0,0,0,543,247Zm7,0a3,3,0,1,0,3,3A3,3,0,0,0,550,247Zm7,0a3,3,0,1,0,3,3A3,3,0,0,0,557,247Zm7,0a3,3,0,1,0,3,3A3,3,0,0,0,564,247Zm7,0a3,3,0,1,0,3,3A3,3,0,0,0,571,247Zm7,0a3,3,0,1,0,3,3A3,3,0,0,0,578,247Zm7,0a3,3,0,1,0,3,3A3,3,0,0,0,585,247Zm7,0a3,3,0,1,0,3,3A3,3,0,0,0,592,247ZM583.892,63.76c-0.44-5.722-8.639-10.382-19.228-11.155a18.823,18.823,0,0,0-5.938-3.534c3.486-2.785,9.492-4.628,16.327-4.628,10.779,0,19.517,4.574,19.517,10.217C594.57,58.634,590.224,62.071,583.892,63.76ZM557.314,48.57a33.215,33.215,0,0,0-6.013-1.333c-0.008-.111-0.026-0.22-0.026-0.331,0-4.783,7.47-8.661,16.684-8.661,7.441,0,13.738,2.53,15.889,6.021a35.916,35.916,0,0,0-8.795-1.069C567.571,43.2,561.015,45.344,557.314,48.57Zm-7.455-1.492c-1.161-.105-2.346-0.173-3.562-0.173a33.549,33.549,0,0,0-13.921,2.8,4.7,4.7,0,0,1-.282-1.552c0-4.783,7.47-8.661,16.685-8.661a30.584,30.584,0,0,1,6.058.6c-3.087,1.777-4.993,4.173-4.993,6.819C549.844,46.964,549.857,47.02,549.859,47.078Zm-19.993-5.355c-0.979-1.839-3.634-3.3-7.036-3.881a8.053,8.053,0,0,0-4.039-2.835,16.384,16.384,0,0,1,5.209-.8c4.971,0,9,1.92,9,4.289C533,39.79,531.77,40.937,529.866,41.724Zm-19.3,1.549c0-2.369,4.03-4.289,9-4.289s9,1.92,9,4.289-4.029,4.289-9,4.289S510.562,45.641,510.562,43.272Zm51.018,11.05c10.787,0,19.531,4.435,19.531,9.906s-8.744,9.906-19.531,9.906-19.531-4.435-19.531-9.906S550.794,54.322,561.58,54.322Zm-35.15,4.019c0-5.643,8.9-10.217,19.867-10.217,6.75,0,12.7,1.735,16.294,4.381-0.343-.008-0.681-0.027-1.028-0.027-12.358,0-22.376,5.266-22.376,11.761a6.97,6.97,0,0,0,1.264,3.868C532.333,66.823,526.43,62.937,526.43,58.341ZM520.514,37.6c-0.314-.015-0.63-0.026-0.952-0.026-5.919,0-10.718,2.559-10.718,5.715,0,0.095.018,0.187,0.026,0.28-3.037-.689-5.151-2.153-5.151-3.863,0-2.369,4.029-4.289,9-4.289C516.074,35.413,518.967,36.3,520.514,37.6ZM479,269c-6.25,0-12-3.111-12-11.556s3.818-8.666,3.818-16.222c0-.8.1-2.222,1.637-2.222h13.09c1.586,0,1.3,1.171,1.3,2,0,7.556,4.154,7.958,4.154,16.444S485.25,269,479,269Zm6-26.111c0.018-.742-0.41-1.659-1.091-1.667h-9.818c-0.924,0-1.091.948-1.091,1.667,0,6.766-3.692,6.867-3.692,14.429s4.644,9.46,9.692,9.46,9.692-1.86,9.692-9.46S484.835,249.838,485,242.889ZM450,34a31.994,31.994,0,0,0-31.975,31h-5a36.988,36.988,0,0,1,73.95,0h-5A31.994,31.994,0,0,0,450,34ZM414.455,239h13.09c1.586,0,1.3,1.171,1.3,2,0,7.556,4.154,7.958,4.154,16.444S427.25,269,421,269s-12-3.111-12-11.556,3.818-8.666,3.818-16.222C412.818,240.42,412.918,239,414.455,239Zm-3.147,18.318c0,7.563,4.644,9.46,9.692,9.46s9.692-1.86,9.692-9.46-3.857-7.48-3.692-14.429c0.018-.742-0.41-1.659-1.091-1.667h-9.818c-0.924,0-1.091.948-1.091,1.667C415,249.655,411.308,249.756,411.308,257.318ZM350,86a36,36,0,1,1,6.556-71.393A31,31,0,0,0,377.95,72.683,35.925,35.925,0,0,1,350,86ZM293.031,52.938H278.923a2.969,2.969,0,0,1,0-5.938h14.108A2.969,2.969,0,0,1,293.031,52.938Zm-20.858-20.9A3,3,0,0,1,267.93,27.8l10.314-10.314a3,3,0,0,1,4.242,4.243ZM272.15,67.725l10.337,10.2a2.943,2.943,0,0,1,0,4.2,3.034,3.034,0,0,1-4.252,0L267.9,71.924a2.943,2.943,0,0,1,0-4.2A3.034,3.034,0,0,1,272.15,67.725ZM250,67a17,17,0,1,1,17-17A17,17,0,0,1,250,67Zm0-43a3,3,0,0,1-3-3V7a3,3,0,0,1,6,0V21A3,3,0,0,1,250,24Zm-22.147,8.324-10.325-10.25a2.969,2.969,0,0,1,0-4.219,3.017,3.017,0,0,1,4.247,0L232.1,28.105a2.969,2.969,0,0,1,0,4.219A3.017,3.017,0,0,1,227.853,32.324Zm-3.784,17.832a2.962,2.962,0,0,1-2.972,2.952H206.972a2.952,2.952,0,1,1,0-5.9H221.1A2.962,2.962,0,0,1,224.069,50.156ZM196,259H104a2,2,0,0,1-2-2V243a2,2,0,0,1,2-2h92a2,2,0,0,1,2,2v14A2,2,0,0,1,196,259Zm-86-15a6,6,0,1,0,6,6A6,6,0,0,0,110,244Zm14,0a6,6,0,1,0,6,6A6,6,0,0,0,124,244Zm13,0a6,6,0,1,0,6,6A6,6,0,0,0,137,244Zm13,0a6,6,0,1,0,6,6A6,6,0,0,0,150,244Zm13,0a6,6,0,1,0,6,6A6,6,0,0,0,163,244Zm14,0a6,6,0,1,0,6,6A6,6,0,0,0,177,244Zm13,0a6,6,0,1,0,6,6A6,6,0,0,0,190,244Zm-1-108a15.957,15.957,0,0,0-8,1l15-19v21S193.866,136.513,189,136Zm-1,21.219a8,8,0,0,1,8,8V189a3,3,0,0,1-3,3H182.406a3,3,0,0,1-3-3V165.219a8,8,0,0,1,8-8H188ZM187.7,138a8.235,8.235,0,1,1-8.3,8.234A8.266,8.266,0,0,1,187.7,138ZM150,87a37,37,0,0,1-20.806-67.6l0.094,0.138a2.993,2.993,0,1,1,2.619,5.3,31,31,0,1,0,36.186,0,2.992,2.992,0,1,1,2.619-5.3l0.094-.138A37,37,0,0,1,150,87Zm0-46a3,3,0,0,1-3-3V7a3,3,0,0,1,6,0V38A3,3,0,0,1,150,41ZM139.563,148.542l-8.919,1.137c-3.375-2.31-8.085-.095-8.355-1.976-0.321-2.242,5.788-.911,7.5-3.963l8.919-1.137c1.64-.235,2.171,1.045,2.406,2.686S141.2,148.307,139.563,148.542ZM163.5,132.469a8.239,8.239,0,1,1,8.5-8.235A8.371,8.371,0,0,1,163.5,132.469Zm-10.717,9.038-9.941-8.925a5.668,5.668,0,0,1-2.044-4.767l-0.5-9.8a4.053,4.053,0,0,1,8.1-.412l0.485,9.535,9.337,8.383a6.889,6.889,0,0,1,.753.79,7.951,7.951,0,0,1,4.029-1.1h1a8,8,0,0,1,8,8V167a3,3,0,0,1-3,3H158a3,3,0,0,1-3-3V143.219c0-.131.013-0.259,0.02-0.388A6.676,6.676,0,0,1,152.783,141.507ZM117.579,192H107a3,3,0,0,1-3-3V165.22a8,8,0,0,1,8-8h0.579a7.956,7.956,0,0,1,4.712,1.545c0.184,0.021.366,0.032,0.552,0.07l9.092,1.855,0.664-5.9a3.627,3.627,0,0,1,7.208.812l-1.015,9.009a3.585,3.585,0,0,1-.209.841,2.534,2.534,0,0,1-.02.288c-0.4,1.962-2.828,3.124-5.423,2.595l-7.561-1.543V189A3,3,0,0,1,117.579,192Zm3-45.763a8.29,8.29,0,1,1-8.29-8.237A8.264,8.264,0,0,1,120.579,146.237ZM91.342,341L49.411,388,7.493,364,4,323l45.411,17,43.1-27-0.465,11.182,0.3-.182H98l-6.118,4.029Zm-44.26,14.067-6.734-2.7a3.715,3.715,0,0,1,.307,1.427c0,1.046-.54,1.585-1.205,1.2a3.208,3.208,0,0,1-1.205-2.583,2.027,2.027,0,0,1,.158-0.829L31.945,349l8.151-3,6.986,3v-5L6.658,326l3.329,37,37.1,19V355.067ZM51.74,380l38.11-40,0.511-10.969-4.16,2.741a1.184,1.184,0,0,1,.63,1.219,3.2,3.2,0,0,1-1.434,2.632c-0.792.418-1.433-.082-1.433-1.117a3.328,3.328,0,0,1,.413-1.534l-20.348,13.4a1.209,1.209,0,0,1,.583,1.193,3.2,3.2,0,0,1-1.433,2.632c-0.792.418-1.434-.082-1.434-1.117a3.292,3.292,0,0,1,.374-1.45L51.74,354.466V380Zm0-37v5.59l38.8-23.5L91.014,315Zm34.394-19.233a3.2,3.2,0,0,1,1.434-2.632c0.792-.418,1.433.082,1.433,1.117a3.2,3.2,0,0,1-1.433,2.632C86.776,325.3,86.134,324.8,86.134,323.767Zm-7.024,5.017a3.206,3.206,0,0,1,1.434-2.632c0.792-.418,1.433.082,1.433,1.117a3.2,3.2,0,0,1-1.433,2.632C79.751,330.32,79.109,329.82,79.109,328.784Zm-9.277,5.087a3.2,3.2,0,0,1,1.433-2.632c0.792-.418,1.433.082,1.433,1.117a3.2,3.2,0,0,1-1.433,2.632C70.474,335.406,69.832,334.906,69.832,333.871ZM59.8,340.9a3.206,3.206,0,0,1,1.434-2.632c0.792-.418,1.434.082,1.434,1.118a3.2,3.2,0,0,1-1.434,2.631C60.439,342.431,59.8,341.931,59.8,340.9Zm3.461,21.721a3.2,3.2,0,0,1-1.433,2.632c-0.792.419-1.434-.082-1.434-1.117a3.2,3.2,0,0,1,1.434-2.632C62.617,361.081,63.259,361.581,63.259,362.616Zm-6.246-6.384a3.2,3.2,0,0,1,1.434-2.632c0.792-.419,1.434.082,1.434,1.117a3.2,3.2,0,0,1-1.434,2.632C57.654,357.767,57.013,357.267,57.013,356.232Zm-1.147,9.043c-0.792.418-1.434-.082-1.434-1.117a3.2,3.2,0,0,1,1.434-2.632c0.792-.418,1.434.082,1.434,1.117A3.2,3.2,0,0,1,55.866,365.275Zm3.3,4.105a3.2,3.2,0,0,1-1.434,2.632c-0.792.418-1.434-.082-1.434-1.117a3.2,3.2,0,0,1,1.434-2.632C58.521,367.844,59.163,368.345,59.163,369.38Zm9.175-11.6a3.2,3.2,0,0,1-1.434,2.632c-0.792.418-1.433-.082-1.433-1.117a3.2,3.2,0,0,1,1.433-2.632C67.7,356.249,68.337,356.749,68.337,357.784Zm1.29-10.024c0.792-.418,1.434.082,1.434,1.117a3.2,3.2,0,0,1-1.434,2.632c-0.792.419-1.433-.082-1.433-1.117A3.2,3.2,0,0,1,69.628,347.76Zm4.587,6.639a3.2,3.2,0,0,1-1.433,2.632c-0.792.418-1.434-.082-1.434-1.117a3.2,3.2,0,0,1,1.434-2.632C73.573,352.863,74.215,353.364,74.215,354.4Zm3.01-7.116a3.2,3.2,0,0,1-1.434,2.632c-0.792.418-1.434-.082-1.434-1.117a3.2,3.2,0,0,1,1.434-2.632C76.584,345.748,77.225,346.248,77.225,347.283Zm5.734-8.036a3.2,3.2,0,0,1-1.434,2.632c-0.792.419-1.433-.082-1.433-1.117a3.2,3.2,0,0,1,1.433-2.632C82.318,337.712,82.959,338.212,82.959,339.247Zm0.43,5.541a3.2,3.2,0,0,1-1.433,2.632c-0.792.418-1.434-.082-1.434-1.117a3.2,3.2,0,0,1,1.434-2.632C82.748,343.252,83.39,343.753,83.39,344.788Zm-11.468-1.924a3.2,3.2,0,0,1,1.434-2.632c0.792-.419,1.434.082,1.434,1.117a3.2,3.2,0,0,1-1.434,2.632C72.563,344.4,71.921,343.9,71.921,342.864Zm16.772-4.4A3.2,3.2,0,0,1,87.26,341.1c-0.792.419-1.434-.082-1.434-1.117a3.2,3.2,0,0,1,1.434-2.632C88.052,336.932,88.694,337.432,88.694,338.467Zm-77.475-6.694a3.208,3.208,0,0,1,1.205,2.583c0,1.045-.54,1.584-1.205,1.2a3.208,3.208,0,0,1-1.205-2.583C10.014,331.932,10.553,331.392,11.219,331.773Zm1.939,26.609a3.206,3.206,0,0,1,1.205,2.582c0,1.046-.54,1.585-1.205,1.2a3.2,3.2,0,0,1-1.205-2.582C11.952,358.54,12.492,358,13.157,358.382Zm0.625-4.474a3.2,3.2,0,0,1-1.205-2.582c0-1.046.54-1.585,1.205-1.2a3.206,3.206,0,0,1,1.205,2.582C14.988,353.75,14.449,354.289,13.783,353.908Zm0.446-8.5a3.208,3.208,0,0,1-1.205-2.583c0-1.045.54-1.584,1.205-1.2a3.208,3.208,0,0,1,1.205,2.583C15.434,345.246,14.895,345.785,14.229,345.405Zm4.007-11.625a3.208,3.208,0,0,1,1.205,2.582c0,1.046-.54,1.585-1.205,1.2a3.208,3.208,0,0,1-1.205-2.583C17.031,333.939,17.57,333.4,18.236,333.78Zm1.332,19.892a3.208,3.208,0,0,1,1.205,2.583c0,1.045-.54,1.584-1.205,1.2a3.208,3.208,0,0,1-1.205-2.583C18.363,353.831,18.9,353.292,19.568,353.672Zm1.482-14.6a3.208,3.208,0,0,1,1.205,2.583c0,1.045-.54,1.585-1.205,1.2a3.208,3.208,0,0,1-1.205-2.582C19.845,339.232,20.384,338.693,21.05,339.073Zm1.892,8.47a3.208,3.208,0,0,1,1.205,2.583c0,1.045-.54,1.584-1.205,1.2a3.208,3.208,0,0,1-1.205-2.583C21.737,347.7,22.277,347.163,22.942,347.543Zm0.482,13.393a3.206,3.206,0,0,1,1.205,2.582c0,1.046-.54,1.585-1.205,1.2a3.2,3.2,0,0,1-1.205-2.582C22.219,361.094,22.759,360.555,23.424,360.936Zm2.446-23.65a3.208,3.208,0,0,1,1.205,2.582c0,1.046-.54,1.585-1.205,1.2a3.2,3.2,0,0,1-1.205-2.582C24.665,337.444,25.2,336.905,25.87,337.286Zm2.41,18.039a3.208,3.208,0,0,1,1.205,2.583c0,1.045-.54,1.584-1.205,1.2a3.208,3.208,0,0,1-1.205-2.583C27.076,355.484,27.615,354.945,28.281,355.325Zm1.446,9.915a3.206,3.206,0,0,1,1.205,2.582c0,1.046-.54,1.585-1.205,1.2a3.2,3.2,0,0,1-1.205-2.582C28.522,365.4,29.061,364.859,29.727,365.24Zm1.446-23.407a3.2,3.2,0,0,1,1.205,2.582c0,1.046-.54,1.585-1.205,1.2a3.206,3.206,0,0,1-1.205-2.582C29.968,341.991,30.508,341.452,31.173,341.833Zm4.339-.549a3.208,3.208,0,0,1,1.205,2.582c0,1.046-.54,1.585-1.205,1.205a3.208,3.208,0,0,1-1.205-2.583C34.307,341.443,34.846,340.9,35.512,341.284Zm-6.749,9.773a3.208,3.208,0,0,1-1.205-2.583c0-1.045.54-1.584,1.205-1.2a3.208,3.208,0,0,1,1.205,2.583C29.968,350.9,29.429,351.437,28.763,351.057Zm4.821,1.242a3.2,3.2,0,0,1,1.205,2.582c0,1.046-.539,1.585-1.205,1.2a3.206,3.206,0,0,1-1.205-2.582C32.378,352.457,32.918,351.918,33.584,352.3Zm0,9.087a3.208,3.208,0,0,1,1.205,2.583c0,1.045-.539,1.585-1.205,1.2a3.208,3.208,0,0,1-1.205-2.582C32.378,361.545,32.918,361.006,33.584,361.386Zm2.892,7.713a3.206,3.206,0,0,1,1.205,2.582c0,1.046-.54,1.585-1.205,1.2a3.2,3.2,0,0,1-1.205-2.582C35.271,369.257,35.81,368.718,36.476,369.1Zm1.968-10.051a3.2,3.2,0,0,1,1.205,2.582c0,1.046-.54,1.585-1.205,1.2a3.2,3.2,0,0,1-1.205-2.582C37.238,359.206,37.778,358.667,38.444,359.048Zm5.026,12.08a3.205,3.205,0,0,1,1.205,2.582c0,1.046-.54,1.585-1.205,1.2a3.2,3.2,0,0,1-1.205-2.582C42.264,371.286,42.8,370.747,43.469,371.128Zm0-3.238a3.208,3.208,0,0,1-1.205-2.583c0-1.045.539-1.584,1.205-1.2a3.208,3.208,0,0,1,1.205,2.583C44.678,367.731,44.138,368.27,43.473,367.89Zm0.589-7.516a3.208,3.208,0,0,1-1.205-2.582c0-1.046.54-1.585,1.205-1.2a3.208,3.208,0,0,1,1.205,2.583C45.267,360.215,44.727,360.755,44.061,360.374ZM93,192H81a3,3,0,0,1-3-3V170.791l-1.433,1.434A5.648,5.648,0,0,1,71.738,174H62a4,4,0,0,1,0-8h9.478l7.185-7.185A8,8,0,0,1,86,154h2a8,8,0,0,1,8,8v27A3,3,0,0,1,93,192Zm-6-41a9,9,0,1,1,9-9A9,9,0,0,1,87,151ZM73.108,140l-7.422-7.4a27.936,27.936,0,0,1-8.186,1.178c-9.113,0-16.5-3.98-16.5-8.89S48.387,116,57.5,116,74,119.98,74,124.891c0,2.1-1.364,4.033-3.63,5.556ZM39,125a6.709,6.709,0,0,0,.252,1.733,27.538,27.538,0,0,1-6.935-1.132L24.892,133l2.739-9.555C25.364,121.922,24,119.993,24,117.889,24,112.98,31.387,109,40.5,109c6.576,0,12.237,2.078,14.889,5.077C46.167,114.7,39,119.35,39,125ZM13,151a9,9,0,1,1,9-9A9,9,0,0,1,13,151Zm74.006,78.25v42.5L50,293,12.994,271.75v-42.5L50,208ZM18.793,268.42L50,286.34l31.207-17.92V232.58L50,214.66,18.793,232.58v35.84ZM53,258v20a3,3,0,0,1-6,0V258A3,3,0,0,1,53,258Zm-11.541-8.152-15.919-9.5a3,3,0,1,1,3-5.2l15.919,9.5A3,3,0,1,1,41.459,249.848Zm30.02-15.435a2.966,2.966,0,0,1,4.108,1.13,3.13,3.13,0,0,1-1.1,4.215L58.52,249.587a2.966,2.966,0,0,1-4.108-1.13,3.13,3.13,0,0,1,1.1-4.215ZM12,154h2a8,8,0,0,1,7.337,4.815L28.522,166H38a4,4,0,0,1,0,8H28.262a5.648,5.648,0,0,1-4.829-1.775L22,170.791V189a3,3,0,0,1-3,3H7a3,3,0,0,1-3-3V162A8,8,0,0,1,12,154ZM66.251,415.708a2.817,2.817,0,0,1,4.044.313,3,3,0,0,1-.305,4.151L36.252,449.937,69.907,479.82a3,3,0,0,1,.293,4.152,2.817,2.817,0,0,1-4.045.3L30.007,452.177a2.909,2.909,0,0,1-.628-0.81l-0.016-.027a2.943,2.943,0,0,1-.161-0.381c-0.024-.064-0.051-0.127-0.071-0.192s-0.03-.139-0.044-0.209a3.014,3.014,0,0,1-.064-0.39c0-.007,0-0.015,0-0.022a2.97,2.97,0,0,1,.982-2.46ZM197,316l-11,11-4-2,9-7H170l-60,11,19,24,14-7,2,5-17,9-24-33,66-12Zm-53,39-3,22-13,15-20-31-4-30,23,34Zm-15,32,10-11,3-17-14,8Zm-4-21-19-29,3,23,17,26Zm38.743,84.063-33.68-29.883a3,3,0,0,1-.293-4.152,2.82,2.82,0,0,1,4.048-.3l36.174,32.095a2.888,2.888,0,0,1,.628.811l0.016,0.026a2.823,2.823,0,0,1,.161.381c0.024,0.064.052,0.127,0.071,0.192s0.03,0.139.044,0.21a3.033,3.033,0,0,1,.064.389c0,0.007,0,.015,0,0.023a2.969,2.969,0,0,1-.983,2.459l-36.273,31.978a2.821,2.821,0,0,1-4.047-.313,3,3,0,0,1,.306-4.151ZM118,335l53-15,12,2-5,4-7-3-44,24Zm78-15-7,26-8,5,4-22Zm-8,25,6-22-7,7-4,17Zm21,20h82a1,1,0,0,1,1,1v2a1,1,0,0,1-1,1H209a1,1,0,0,1-1-1v-2A1,1,0,0,1,209,365Zm6.609,50.609c1.209-1.208,3.844-.533,5.886,1.509l28,28,28-28c2.042-2.042,4.677-2.717,5.886-1.509s0.533,3.844-1.509,5.886l-28,28,28,28c2.042,2.042,2.717,4.677,1.509,5.886s-3.844.533-5.886-1.509l-28-28-28,28c-2.042,2.042-4.677,2.717-5.886,1.509s-0.533-3.844,1.509-5.886l28-28-28-28C215.076,419.453,214.4,416.818,215.609,415.609Zm24.382-268.82a8.593,8.593,0,1,1-6.353-10.03A8.4,8.4,0,0,1,239.991,146.789ZM231.5,107a0.5,0.5,0,0,1,.5.5v14c0,1.381-1.791,2.5-4,2.5s-4-1.119-4-2.5,1.791-2.5,4-2.5a5.222,5.222,0,0,1,3,.862V107.5A0.5,0.5,0,0,1,231.5,107Zm-3.624-39.183a3.051,3.051,0,0,1,4.256,0,2.912,2.912,0,0,1,0,4.175L221.783,82.126a3.051,3.051,0,0,1-4.256,0,2.913,2.913,0,0,1,0-4.175ZM209.41,147.759a5.61,5.61,0,0,1-.859-5.1l1.865-9.592a4.094,4.094,0,0,1,8.033,1.573l-1.814,9.336,7.138,10.377a7.126,7.126,0,0,1,.542.932,7.957,7.957,0,0,1,4.141-.083l1.133,0.282a7.974,7.974,0,0,1,5.133,4.023,6.741,6.741,0,0,1,1.532,1.767l6.555,10.933,9.35,2.205a4.163,4.163,0,0,1-1.92,8.1l-9.607-2.266a5.636,5.636,0,0,1-4.337-2.921l-2.749-4.585-3.823,15.387a3,3,0,0,1-3.634,2.188l-10.839-2.692a3,3,0,0,1-2.188-3.635l5.7-22.948c0.034-.137.081-0.267,0.121-0.4a6.759,6.759,0,0,1-1.875-1.826ZM218.857,364H213a6.492,6.492,0,0,1-2-1c-0.544-.544-1-19-1-19s3.68-2.247,4-4a7.663,7.663,0,0,0,0-3v-3c0-.748-0.018-1.662,0-2h3.905c0.017,0.338,0,1.252,0,2v3a8.031,8.031,0,0,0,0,3c0.305,1.753,3.857,4,3.857,4s-0.482,18.456-1,19A6.062,6.062,0,0,1,218.857,364Zm39.961-140.378a4.813,4.813,0,0,1,4.816,4.811v4.491a31.012,31.012,0,0,1-2.889,11.866c0,2.657-4.083,11.546-6.743,11.546h-5.78c-2.66,0-6.743-8.889-6.743-11.546,0,0-2.889-6.565-2.889-12.053v-4.3a4.813,4.813,0,0,1,4.816-4.811h15.412Zm-30.693,5.784a4,4,0,0,1-4-4v-4.5a4,4,0,0,1,4-4h45.938a4,4,0,0,1,4,4v4.5a4,4,0,0,1-4,4h-7.539V226.4a5.8,5.8,0,0,0-5.928-5.66H241.628a5.8,5.8,0,0,0-5.928,5.66v3.011h-7.575ZM287.762,345s0.518,17.456,0,18a6.073,6.073,0,0,1-1.9,1H280a6.492,6.492,0,0,1-2-1c-0.544-.544,0-18,0-18s2.68-2.247,3-4a7.663,7.663,0,0,0,0-3v-3c0-.748-0.018-1.662,0-2h3.9c0.017,0.338,0,1.252,0,2v3a8.031,8.031,0,0,0,0,3C285.21,342.753,287.762,345,287.762,345Zm-13-4s0.518,21.456,0,22a6.073,6.073,0,0,1-1.9,1H267a6.492,6.492,0,0,1-2-1c-0.544-.544,0-22,0-22s2.68-2.247,3-4a7.663,7.663,0,0,0,0-3v-3c0-.748-0.018-1.662,0-2h3.9c0.017,0.338,0,1.252,0,2v3a8.031,8.031,0,0,0,0,3C272.21,338.753,274.762,341,274.762,341Zm-13,5s0.518,16.456,0,17a6.062,6.062,0,0,1-1.9,1H253a6.492,6.492,0,0,1-2-1c-0.544-.544,0-17,0-17s2.68-2.247,3-4a7.663,7.663,0,0,0,0-3v-1c0-.748-0.018-1.662,0-2h4.9c0.017,0.338,0,1.252,0,2v1a8.031,8.031,0,0,0,0,3C259.21,343.753,261.762,346,261.762,346Zm-14-2s0.518,18.456,0,19a6.062,6.062,0,0,1-1.905,1H240a6.492,6.492,0,0,1-2-1c-0.544-.544,0-19,0-19a9.219,9.219,0,0,0,3-5,6.67,6.67,0,0,0,0-3v-3c0-.748-0.018-1.662,0-2h3.905c0.017,0.338,0,1.252,0,2v3a4.294,4.294,0,0,0,0,3A21.316,21.316,0,0,0,247.762,344Zm-24.97-66.609-4.751-17.713c-0.729-2.718,16.025-12.727,19.657-13.7l0.6-.162c0.205,3.32,6.036,13.406,9.252,13.406h7.114c3.273,0,8.3-10.458,8.3-13.584a38.3,38.3,0,0,0,2.606-7.121l5.768-1.544c2.733-.731,7.518.349,8.247,3.066l6.335,23.618c0.729,2.718-2.874,6.043-5.606,6.774l-28.69,7.679-4.954,1.326C242.621,280.522,223.521,280.109,222.792,277.391ZM237.7,245.979h0ZM234.762,343s0.518,19.456,0,20a6.062,6.062,0,0,1-1.905,1H227a6.492,6.492,0,0,1-2-1c-0.544-.544,0-20,0-20s2.68-4.247,3-6a7.663,7.663,0,0,0,0-3v-1c0-.748-0.018-3.662,0-4h3.905c0.017,0.338,0,3.252,0,4v1a8.031,8.031,0,0,0,0,3C232.21,338.753,234.762,343,234.762,343ZM247,93V79a3,3,0,0,1,6,0V93A3,3,0,0,1,247,93Zm12,21.028a10.283,10.283,0,0,1-.1,1.5c0.059,0.456.094,0.865,0.094,0.973v12c0,1.381-1.791,2.5-4,2.5s-4-1.119-4-2.5,1.791-2.5,4-2.5a5.222,5.222,0,0,1,3,.862V116.68l-11.978,1.748a0.08,0.08,0,0,1-.022-0.02V130.5c0,1.381-1.791,2.5-4,2.5s-4-1.119-4-2.5,1.791-2.5,4-2.5a5.222,5.222,0,0,1,3,.862V116.5a0.5,0.5,0,0,1,.5-0.5h0a0.478,0.478,0,0,1,.378-0.56l12.6-1.84A0.479,0.479,0,0,1,259,114.028ZM279.9,136.923a8.589,8.589,0,1,1-10.3-5.93A8.459,8.459,0,0,1,279.9,136.923ZM281.5,105a0.5,0.5,0,0,1,.5.5v14c0,1.381-1.791,2.5-4,2.5s-4-1.119-4-2.5,1.791-2.5,4-2.5a5.222,5.222,0,0,1,3,.862V105.5A0.5,0.5,0,0,1,281.5,105Zm2.842,50.027c0.04,0.134.087,0.265,0.12,0.4l5.7,23.1a3.022,3.022,0,0,1-2.187,3.659l-10.831,2.71a3,3,0,0,1-3.632-2.2l-5.172-20.973-9.762,4.15a4.112,4.112,0,0,1-2.179.6,4.291,4.291,0,0,1-4.315-1.784l-6.446-3.462a4.19,4.19,0,0,1,3.978-7.37l7.15,3.841,11.165-4.746a6.928,6.928,0,0,1,1.486-.429,7.937,7.937,0,0,1,4.229-2.691l1.132-.284a7.9,7.9,0,0,1,4.139.083,7.068,7.068,0,0,1,.541-0.938l7.134-10.447-1.814-9.4a4.092,4.092,0,0,1,8.029-1.584l1.863,9.656a5.682,5.682,0,0,1-.858,5.14l-7.594,11.122A6.778,6.778,0,0,1,284.342,155.027Zm77.113,76.445a1.638,1.638,0,0,1-1.637,1.639H340.182a1.639,1.639,0,0,1,0-3.278h19.636A1.638,1.638,0,0,1,361.455,231.472Zm-15.546-8.194a1.639,1.639,0,0,1,0-3.278h8.182a1.639,1.639,0,0,1,0,3.278h-8.182Zm14.727,3.278A1.636,1.636,0,0,1,359,228.194H341a1.639,1.639,0,0,1,0-3.277h18A1.637,1.637,0,0,1,360.636,226.556Zm-20.454,8.194h19.636c2.378,0,1.951,1.728,1.951,2.95,0,11.144,6.231,11.738,6.231,24.256S359.375,279,350,279s-18-4.589-18-17.044,5.727-12.784,5.727-23.928C337.727,236.844,337.878,234.75,340.182,234.75ZM350,275.722c7.572,0,14.538-2.743,14.538-13.952s-5.786-11.034-5.538-21.284c0.026-1.094-.614-2.446-1.636-2.458H342.636c-1.385,0-1.636,1.4-1.636,2.458,0,9.98-5.538,10.129-5.538,21.284S342.428,275.722,350,275.722ZM418.273,229h5.454a1.111,1.111,0,0,1,0,2.222h-5.454A1.111,1.111,0,0,1,418.273,229Zm9.272,6.667a1.111,1.111,0,0,1,0,2.222h-13.09a1.111,1.111,0,0,1,0-2.222h13.09ZM415,232.333h12a1.112,1.112,0,0,1,0,2.223H415A1.112,1.112,0,0,1,415,232.333ZM450,43a22.982,22.982,0,0,0-22.95,22h-5.025a27.993,27.993,0,0,1,55.95,0h-5.026A22.98,22.98,0,0,0,450,43Zm35.545,194.889h-13.09a1.111,1.111,0,0,1,0-2.222h13.09A1.111,1.111,0,0,1,485.545,237.889Zm-9.272-6.667a1.111,1.111,0,0,1,0-2.222h5.454a1.111,1.111,0,0,1,0,2.222h-5.454Zm9.818,2.222A1.1,1.1,0,0,1,485,234.556H473a1.112,1.112,0,0,1,0-2.223h12A1.1,1.1,0,0,1,486.091,233.444ZM450,47a18.983,18.983,0,0,1,18.949,18h-5a13.984,13.984,0,0,0-27.9,0h-5A18.985,18.985,0,0,1,450,47Zm6.545,190.889h-13.09a1.111,1.111,0,0,1,0-2.222h13.09A1.111,1.111,0,0,1,456.545,237.889Zm-9.272-6.667a1.111,1.111,0,0,1,0-2.222h5.454a1.111,1.111,0,0,1,0,2.222h-5.454Zm9.818,2.222A1.1,1.1,0,0,1,456,234.556H444a1.112,1.112,0,0,1,0-2.223h12A1.1,1.1,0,0,1,457.091,233.444ZM443.455,239h13.09c1.586,0,1.3,1.171,1.3,2,0,7.556,4.154,7.958,4.154,16.444S456.25,269,450,269s-12-3.111-12-11.556,3.818-8.666,3.818-16.222C441.818,240.42,441.918,239,443.455,239ZM450,266.778c5.048,0,9.692-1.86,9.692-9.46s-3.857-7.48-3.692-14.429c0.018-.742-0.41-1.659-1.091-1.667h-9.818c-0.924,0-1.091.948-1.091,1.667,0,6.766-3.692,6.867-3.692,14.429S444.952,266.778,450,266.778ZM611.5,239h77a1.5,1.5,0,0,1,1.5,1.5v1a1.5,1.5,0,0,1-1.5,1.5h-77a1.5,1.5,0,0,1-1.5-1.5v-1A1.5,1.5,0,0,1,611.5,239Zm4,13h69a1.5,1.5,0,0,1,1.5,1.5v1a1.5,1.5,0,0,1-1.5,1.5h-69a1.5,1.5,0,0,1-1.5-1.5v-1A1.5,1.5,0,0,1,615.5,252Zm4,12h61a1.5,1.5,0,0,1,0,3h-61A1.5,1.5,0,0,1,619.5,264Zm4,10h53a1.354,1.354,0,0,1,1.5,1.125v0.75A1.354,1.354,0,0,1,676.5,277h-53a1.354,1.354,0,0,1-1.5-1.125v-0.75A1.354,1.354,0,0,1,623.5,274ZM750,268.816A18.816,18.816,0,1,1,768.816,250,18.816,18.816,0,0,1,750,268.816Zm0-32.738A13.922,13.922,0,1,0,763.922,250,13.922,13.922,0,0,0,750,236.078Zm-15.968,39.2,0.071-.112c0.416-.661.85-1.338,1.3-2.023,0.026-.041.053-0.082,0.08-0.123,0.455-.7.921-1.4,1.394-2.1l0.017-.025c0.487-.723.979-1.444,1.469-2.156h0a21.942,21.942,0,0,0,23.35-.044h0c0.937,1.361,1.88,2.757,2.778,4.132l0.052,0.079c0.433,0.664.855,1.322,1.26,1.967,0.026,0.041.052,0.082,0.077,0.123,0.409,0.652.8,1.291,1.167,1.908,2.014,3.388.187,7.463,0.187,7.463L750.038,286l-17.194-1.636s-1.922-3.914-.014-7.125C733.206,276.607,733.61,275.949,734.032,275.275Z"/>
</svg>
