<svg xmlns="http://www.w3.org/2000/svg" width="500" height="500" viewBox="0 0 500 500">
  <defs>
    <style>
      .cls-1 {
        fill: #fff;
        fill-rule: evenodd;
      }
    </style>
  </defs>
  <path id="Ellipse_1_copy_2" data-name="Ellipse 1 copy 2" class="cls-1" d="M382,171a32,32,0,0,0-64,0h-5a37,37,0,0,1,74,0h-5ZM293.031,52.938H276.923a2.969,2.969,0,0,1,0-5.938h16.108A2.969,2.969,0,0,1,293.031,52.938Zm-21.858-19.9A3,3,0,0,1,266.93,28.8l11.314-11.314a3,3,0,0,1,4.242,4.243ZM250,67a17,17,0,1,1,17-17A17,17,0,0,1,250,67Zm0-41a3,3,0,0,1-3-3V7a3,3,0,0,1,6,0V23A3,3,0,0,1,250,26Zm-21.147,7.324-11.325-11.25a2.969,2.969,0,0,1,0-4.219,3.017,3.017,0,0,1,4.247,0L233.1,29.1a2.969,2.969,0,0,1,0,4.219A3.017,3.017,0,0,1,228.853,33.324Zm-2.784,16.832a2.962,2.962,0,0,1-2.972,2.952H206.972a2.952,2.952,0,1,1,0-5.9H223.1A2.962,2.962,0,0,1,226.069,50.156ZM101,237h98v26H101V237Zm85,23a10,10,0,1,0-10-10A10,10,0,0,0,186,260Zm-24,0a10,10,0,1,0-10-10A10,10,0,0,0,162,260Zm-24,0a10,10,0,1,0-10-10A10,10,0,0,0,138,260Zm-24,0a10,10,0,1,0-10-10A10,10,0,0,0,114,260Zm79-68H182.406a3,3,0,0,1-3-3V165.219a8,8,0,0,1,8-8H188a8,8,0,0,1,8,8V189A3,3,0,0,1,193,192Zm-5.3-37.531a8.235,8.235,0,1,1,8.3-8.235A8.266,8.266,0,0,1,187.7,154.469ZM180,136l16-18v21a16.712,16.712,0,0,0-8-3A33.078,33.078,0,0,0,180,136ZM150,87a37,37,0,0,1-20.806-67.6l0.094,0.138a2.993,2.993,0,1,1,2.619,5.3,31,31,0,1,0,36.186,0,2.992,2.992,0,1,1,2.619-5.3l0.094-.138A37,37,0,0,1,150,87Zm0-46a3,3,0,0,1-3-3V7a3,3,0,0,1,6,0V38A3,3,0,0,1,150,41ZM137.563,148.542l-7.918,1.137c-3.351-2.718-7.086-.095-7.356-1.976-0.321-2.242,4.712-.5,6.5-3.963l7.919-1.137c1.64-.235,2.171,1.045,2.406,2.686S139.2,148.307,137.563,148.542ZM156.5,132.469a8.239,8.239,0,1,1,8.5-8.235A8.371,8.371,0,0,1,156.5,132.469Zm-20.658.113a5.668,5.668,0,0,1-2.044-4.767l-0.5-9.8a4.053,4.053,0,0,1,8.1-.412l0.485,9.535,9.337,8.383a6.889,6.889,0,0,1,.753.79,7.951,7.951,0,0,1,4.029-1.1h1a8,8,0,0,1,8,8V167a3,3,0,0,1-3,3H151a3,3,0,0,1-3-3V143.219c0-.131.013-0.259,0.02-0.388a6.676,6.676,0,0,1-2.237-1.324ZM117.579,192H107a3,3,0,0,1-3-3V165.22a8,8,0,0,1,8-8h0.579a7.956,7.956,0,0,1,4.712,1.545c0.184,0.021.366,0.032,0.552,0.07l9.092,1.855,0.664-5.9a3.627,3.627,0,0,1,7.208.812l-1.015,9.009a3.585,3.585,0,0,1-.209.841,2.534,2.534,0,0,1-.02.288c-0.4,1.962-2.828,3.124-5.423,2.595l-7.561-1.543V189A3,3,0,0,1,117.579,192Zm3-45.763a8.29,8.29,0,1,1-8.29-8.237A8.264,8.264,0,0,1,120.579,146.237ZM93,192H81a3,3,0,0,1-3-3V170.791l-1.433,1.434A5.648,5.648,0,0,1,71.738,174H62a4,4,0,0,1,0-8h9.478l7.185-7.185A8,8,0,0,1,86,154h2a8,8,0,0,1,8,8v27A3,3,0,0,1,93,192Zm-6-41a9,9,0,1,1,9-9A9,9,0,0,1,87,151ZM70.37,130.447L73.108,140l-7.422-7.4a27.936,27.936,0,0,1-8.186,1.178c-9.113,0-16.5-3.98-16.5-8.89S48.387,116,57.5,116,74,119.98,74,124.891C74,126.994,72.637,128.924,70.37,130.447ZM40,124.5a5.488,5.488,0,0,0,.527,2.277H40.5a27.955,27.955,0,0,1-8.184-1.177L24.892,133l2.739-9.555C25.364,121.922,24,119.993,24,117.889,24,112.98,31.387,109,40.5,109c7.259,0,13.41,2.529,15.617,6.038C47.1,115.422,40,119.507,40,124.5ZM13,151a9,9,0,1,1,9-9A9,9,0,0,1,13,151Zm-1,3h2a8,8,0,0,1,7.337,4.815L28.522,166H38a4,4,0,0,1,0,8H28.262a5.648,5.648,0,0,1-4.829-1.775L22,170.791V189a3,3,0,0,1-3,3H7a3,3,0,0,1-3-3V162A8,8,0,0,1,12,154Zm75.006,75.25v42.5L50,293,12.994,271.75v-42.5L50,208ZM18.793,268.42L50,286.34l31.207-17.92V232.58L50,214.66,18.793,232.58v35.84ZM53,222v23a3,3,0,0,1-6,0V222A3,3,0,0,1,53,222Zm-4.412,29.543a3.13,3.13,0,0,1-1.1,4.215L27.52,267.587a2.966,2.966,0,0,1-4.108-1.13,3.13,3.13,0,0,1,1.1-4.215L44.48,250.413A2.966,2.966,0,0,1,48.588,251.543Zm6.953-1.391,19.919,11.5a3,3,0,1,1-3,5.2l-19.919-11.5A3,3,0,1,1,55.541,250.152ZM30,447.686l36.246-31.978a2.817,2.817,0,0,1,4.044.313,3,3,0,0,1-.305,4.151L36.252,449.937,69.907,479.82a3,3,0,0,1,.293,4.152,2.817,2.817,0,0,1-4.045.3L30.007,452.177a2.911,2.911,0,0,1-.628-0.81l-0.016-.027a2.915,2.915,0,0,1-.161-0.381c-0.024-.064-0.051-0.127-0.071-0.192s-0.03-.139-0.044-0.209a3,3,0,0,1-.064-0.39c0-.007,0-0.015,0-0.023A2.97,2.97,0,0,1,30,447.686Zm99.975,32.142,33.763-29.765-33.68-29.883a3,3,0,0,1-.293-4.152,2.82,2.82,0,0,1,4.048-.3l36.174,32.095a2.9,2.9,0,0,1,.628.81l0.016,0.027a2.823,2.823,0,0,1,.161.381c0.024,0.064.052,0.127,0.071,0.192s0.029,0.139.044,0.209a3.048,3.048,0,0,1,.064.39c0,0.007,0,.015,0,0.023a2.969,2.969,0,0,1-.983,2.459l-36.273,31.978a2.821,2.821,0,0,1-4.047-.313A3,3,0,0,1,129.98,479.828ZM218,207h64a12,12,0,0,1,12,12v39a12,12,0,0,1-8.036,11.316c0.018-.6.036-1.207,0.036-1.816,0-25.129-16.118-45.5-36-45.5s-36,20.371-36,45.5c0,0.609.018,1.213,0.036,1.816A12,12,0,0,1,206,258V219A12,12,0,0,1,218,207Zm32,27a30,30,0,1,1-30,30A30,30,0,0,1,250,234Zm0,51a21,21,0,1,0-21-21A21,21,0,0,0,250,285Zm0-37a16,16,0,1,1-16,16A16,16,0,0,1,250,248Zm0,29a13,13,0,1,0-13-13A13,13,0,0,0,250,277ZM239.991,146.789a8.593,8.593,0,1,1-6.353-10.03A8.4,8.4,0,0,1,239.991,146.789ZM231.5,107a0.5,0.5,0,0,1,.5.5v14c0,1.381-1.791,2.5-4,2.5s-4-1.119-4-2.5,1.791-2.5,4-2.5a5.222,5.222,0,0,1,3,.862V107.5A0.5,0.5,0,0,1,231.5,107ZM217.527,77.95l11.349-11.134a3.051,3.051,0,0,1,4.256,0,2.912,2.912,0,0,1,0,4.175L221.783,82.126a3.051,3.051,0,0,1-4.256,0A2.913,2.913,0,0,1,217.527,77.95Zm-8.117,69.809a5.61,5.61,0,0,1-.859-5.1l1.865-9.592a4.094,4.094,0,0,1,8.033,1.573l-1.814,9.336,7.138,10.377a7.007,7.007,0,0,1,.541.932,7.961,7.961,0,0,1,4.142-.083l1.133,0.282a7.974,7.974,0,0,1,5.133,4.023,6.741,6.741,0,0,1,1.532,1.767l6.555,10.933,9.35,2.205a4.163,4.163,0,0,1-1.92,8.1l-9.607-2.266a5.636,5.636,0,0,1-4.337-2.921l-2.749-4.585-3.823,15.387a3,3,0,0,1-3.634,2.188l-10.839-2.692a3,3,0,0,1-2.188-3.635l5.7-22.948c0.034-.137.081-0.267,0.121-0.4a6.759,6.759,0,0,1-1.875-1.826ZM247,93V77a3,3,0,0,1,6,0V93A3,3,0,0,1,247,93Zm12,21.028a10.283,10.283,0,0,1-.1,1.5c0.059,0.456.094,0.865,0.094,0.973v12c0,1.381-1.791,2.5-4,2.5s-4-1.119-4-2.5,1.791-2.5,4-2.5a5.222,5.222,0,0,1,3,.862V116.68l-11.978,1.748a0.08,0.08,0,0,1-.022-0.02V130.5c0,1.381-1.791,2.5-4,2.5s-4-1.119-4-2.5,1.791-2.5,4-2.5a5.222,5.222,0,0,1,3,.862V116.5a0.5,0.5,0,0,1,.5-0.5h0a0.478,0.478,0,0,1,.378-0.56l12.6-1.84A0.479,0.479,0,0,1,259,114.028Zm7.894-47.3a3.032,3.032,0,0,1,4.251,0l11.338,11.2a2.943,2.943,0,0,1,0,4.2,3.034,3.034,0,0,1-4.252,0L266.9,70.924A2.943,2.943,0,0,1,266.9,66.725Zm6.652,80.3a8.26,8.26,0,1,1,6.349-10.1A8.389,8.389,0,0,1,273.55,147.021ZM281.5,105a0.5,0.5,0,0,1,.5.5v14c0,1.381-1.791,2.5-4,2.5s-4-1.119-4-2.5,1.791-2.5,4-2.5a5.222,5.222,0,0,1,3,.862V105.5A0.5,0.5,0,0,1,281.5,105Zm6.525,19.1a4.046,4.046,0,0,1,4.78,3.174l1.863,9.656a5.682,5.682,0,0,1-.858,5.14l-7.594,11.122a6.778,6.778,0,0,1-1.874,1.838c0.04,0.134.087,0.265,0.12,0.4l5.7,23.1a3.022,3.022,0,0,1-2.187,3.659l-10.831,2.71a3,3,0,0,1-3.632-2.2l-5.172-20.973-9.763,4.15a4.106,4.106,0,0,1-2.178.6,4.291,4.291,0,0,1-4.315-1.784l-6.446-3.462a4.19,4.19,0,0,1,3.978-7.37l7.15,3.841,11.165-4.746a6.928,6.928,0,0,1,1.486-.429,7.937,7.937,0,0,1,4.229-2.691l1.132-.284a7.9,7.9,0,0,1,4.139.083,7.068,7.068,0,0,1,.541-0.938l7.134-10.447-1.814-9.4A4.086,4.086,0,0,1,288.025,124.1ZM350,144a27,27,0,0,1,27,27h-5a22,22,0,0,0-44,0h-5A27,27,0,0,1,350,144Zm-17,77v-5h34v5H333Zm17-62a12,12,0,0,0-12,12h-5a17,17,0,0,1,34,0h-5A12,12,0,0,0,350,159Zm-17.007,55c0.256-3.329,7.763-6,17.007-6s16.751,2.671,17.007,6H332.993Zm0.213,9h33.6a41.59,41.59,0,0,1,.194,5c0,17,9,16.905,9,36s-12.459,26-26,26-26-7-26-26,9-19,9-36A36.79,36.79,0,0,1,333.206,223ZM350,286c10.937,0,21-5.184,21-22.284s-8.269-17.015-8.269-32.238c0-1.67-1.007-3.163-1.157-4.478H338.435c-0.173,1.357-1.166,2.861-1.166,4.478,0,15.223-8.269,15.223-8.269,32.238S339.063,286,350,286Z"/>
</svg>
