<svg xmlns="http://www.w3.org/2000/svg" width="500" height="500" viewBox="0 0 500 500">
  <defs>
    <style>
      .cls-1 {
        fill: #fff;
        fill-rule: evenodd;
      }
    </style>
  </defs>
  <path id="Ellipse_1_copy_2" data-name="Ellipse 1 copy 2" class="cls-1" d="M350,208c9.244,0,16.751,2.671,17.007,6H332.993C333.249,210.671,340.756,208,350,208Zm-17,8h34v5H333v-5Zm0.206,7h33.6a41.59,41.59,0,0,1,.194,5c0,17,9,16.905,9,36s-12.459,26-26,26-26-7-26-26,9-19,9-36A36.79,36.79,0,0,1,333.206,223ZM350,286c10.937,0,21-5.184,21-22.284s-8.269-17.015-8.269-32.238c0-1.67-1.007-3.163-1.157-4.478H338.435c-0.173,1.357-1.166,2.861-1.166,4.478,0,15.223-8.269,15.223-8.269,32.238S339.063,286,350,286ZM293.031,52.938H276.923a2.969,2.969,0,0,1,0-5.938h16.108A2.969,2.969,0,0,1,293.031,52.938Zm-21.858-19.9A3,3,0,0,1,266.93,28.8l11.314-11.314a3,3,0,0,1,4.242,4.243ZM250,67a17,17,0,1,1,17-17A17,17,0,0,1,250,67Zm0-41a3,3,0,0,1-3-3V7a3,3,0,0,1,6,0V23A3,3,0,0,1,250,26Zm-21.147,7.324-11.325-11.25a2.969,2.969,0,0,1,0-4.219,3.017,3.017,0,0,1,4.247,0L233.1,29.105a2.969,2.969,0,0,1,0,4.219A3.017,3.017,0,0,1,228.853,33.324Zm-2.784,16.832a2.962,2.962,0,0,1-2.972,2.952H206.972a2.952,2.952,0,1,1,0-5.9H223.1A2.962,2.962,0,0,1,226.069,50.156ZM101,237h98v26H101V237Zm85,23a10,10,0,1,0-10-10A10,10,0,0,0,186,260Zm-24,0a10,10,0,1,0-10-10A10,10,0,0,0,162,260Zm-24,0a10,10,0,1,0-10-10A10,10,0,0,0,138,260Zm-24,0a10,10,0,1,0-10-10A10,10,0,0,0,114,260ZM150,87a37,37,0,0,1-20.806-67.6l0.094,0.138a2.993,2.993,0,1,1,2.619,5.3,31,31,0,1,0,36.186,0,2.992,2.992,0,1,1,2.619-5.3l0.094-.138A37,37,0,0,1,150,87Zm0-46a3,3,0,0,1-3-3V7a3,3,0,0,1,6,0V38A3,3,0,0,1,150,41ZM12.994,271.75v-42.5L50,208l37.006,21.25v42.5L50,293Zm68.214-39.17L50,214.66,18.793,232.58v35.84L50,286.34l31.207-17.92V232.58ZM55.541,250.152l19.919,11.5a3,3,0,1,1-3,5.2l-19.919-11.5A3,3,0,1,1,55.541,250.152ZM50,248a3,3,0,0,1-3-3V222a3,3,0,0,1,6,0v23A3,3,0,0,1,50,248Zm-1.412,3.543a3.13,3.13,0,0,1-1.1,4.215L27.52,267.587a2.966,2.966,0,0,1-4.108-1.13,3.13,3.13,0,0,1,1.1-4.215L44.48,250.413A2.966,2.966,0,0,1,48.588,251.543ZM217.527,82.126a2.913,2.913,0,0,1,0-4.175l11.349-11.134a3.051,3.051,0,0,1,4.256,0,2.912,2.912,0,0,1,0,4.175L221.783,82.126A3.051,3.051,0,0,1,217.527,82.126ZM247,93V77a3,3,0,0,1,6,0V93A3,3,0,0,1,247,93Zm31.235-10.879L266.9,70.924a2.943,2.943,0,0,1,0-4.2,3.033,3.033,0,0,1,4.251,0l11.338,11.2a2.943,2.943,0,0,1,0,4.2A3.034,3.034,0,0,1,278.235,82.121ZM218,207h64a12,12,0,0,1,12,12v39a12,12,0,0,1-8.036,11.316c0.018-.6.036-1.207,0.036-1.816,0-25.129-16.118-45.5-36-45.5s-36,20.371-36,45.5c0,0.609.018,1.213,0.036,1.816A12,12,0,0,1,206,258V219A12,12,0,0,1,218,207Zm32,27a30,30,0,1,1-30,30A30,30,0,0,1,250,234Zm0,51a21,21,0,1,0-21-21A21,21,0,0,0,250,285Zm0-37a16,16,0,1,1-16,16A16,16,0,0,1,250,248Zm0,29a13,13,0,1,0-13-13A13,13,0,0,0,250,277Z"/>
</svg>
